<svg width="76" height="76" viewBox="0 0 76 76" fill="none" xmlns="http://www.w3.org/2000/svg">
<path d="M33.7471 48.0301H28.528L31.7899 27.9839H37.0095L33.7471 48.0301ZM24.1374 27.9839L19.1618 41.7718L18.5731 38.8027L18.5736 38.8038L16.8175 29.7888C16.8175 29.7888 16.6051 27.9839 14.3417 27.9839H6.11605L6.01953 28.3233C6.01953 28.3233 8.53495 28.8467 11.4788 30.6146L16.0131 48.0306H21.451L29.7544 27.9839H24.1374ZM65.188 48.0301H69.9802L65.802 27.9833H61.6066C59.6692 27.9833 59.1973 29.4773 59.1973 29.4773L51.4135 48.0301H56.854L57.942 45.0524H64.5767L65.188 48.0301ZM59.4451 40.939L62.1873 33.4373L63.73 40.939H59.4451ZM51.8216 32.8045L52.5664 28.4997C52.5664 28.4997 50.2681 27.6257 47.8723 27.6257C45.2823 27.6257 39.1319 28.7577 39.1319 34.262C39.1319 39.4408 46.3505 39.5052 46.3505 42.2254C46.3505 44.9457 39.8756 44.4583 37.7387 42.7429L36.9628 47.244C36.9628 47.244 39.2933 48.3759 42.8538 48.3759C46.4154 48.3759 51.7883 46.5318 51.7883 41.5128C51.7883 36.3007 44.5048 35.8154 44.5048 33.5493C44.5053 31.2827 49.5882 31.5739 51.8216 32.8045Z" fill="#2566AF"/>
<path d="M18.5736 38.8033L16.8175 29.7883C16.8175 29.7883 16.6051 27.9834 14.3417 27.9834H6.11605L6.01953 28.3228C6.01953 28.3228 9.97311 29.1421 13.7653 32.212C17.3912 35.1462 18.5736 38.8033 18.5736 38.8033Z" fill="#E6A540"/>
</svg>
